<svg width="1439" height="239" viewBox="0 0 1439 239" fill="none" xmlns="http://www.w3.org/2000/svg">
    <path d="M0 0H60C120 0 240 -4.05997e-06 360 28.4167C480 56.4078 600 113.88 720 147.618C840 181.995 960 192.638 1080 175.928C1200 158.58 1320 113.88 1380 90.7846L1440 68.1151V238.403H1380C1320 238.403 1200 238.403 1080 238.403C960 238.403 840 238.403 720 238.403C600 238.403 480 238.403 360 238.403C240 238.403 120 238.403 60 238.403H0V0Z" fill="#FFF1F5"/>
    <path d="M111.06 69.64H147.06V74.8H111.06V69.64ZM118.92 61.36H124.32V82.18H118.92V61.36ZM133.86 61.36H139.38V82.18H133.86V61.36ZM113.4 84.46H145.02V116.56H139.62V89.44H118.62V116.86H113.4V84.46ZM116.28 96.64H141.84V101.5H116.28V96.64ZM116.46 108.88H142.02V113.86H116.46V108.88ZM126.42 86.86H131.58V112.42H126.42V86.86ZM93.48 65.62L97.5 62.62C100.26 64.98 102.46 67.4 104.1 69.88C105.74 72.36 106.96 74.9 107.76 77.5C108.6 80.1 109.16 82.76 109.44 85.48C109.76 88.2 109.92 91 109.92 93.88C109.92 96.68 109.82 99.38 109.62 101.98C109.46 104.58 109.14 106.9 108.66 108.94C108.22 110.94 107.58 112.52 106.74 113.68C106.26 114.24 105.72 114.7 105.12 115.06C104.56 115.42 103.92 115.68 103.2 115.84C102.16 116.08 101.02 116.2 99.78 116.2C98.58 116.24 97.34 116.24 96.06 116.2C96.06 115.28 95.92 114.34 95.64 113.38C95.4 112.42 95.04 111.54 94.56 110.74C95.92 110.82 97.12 110.86 98.16 110.86C99.24 110.86 100.08 110.84 100.68 110.8C101.56 110.68 102.18 110.34 102.54 109.78C103.06 109.14 103.44 108.04 103.68 106.48C103.96 104.88 104.16 102.98 104.28 100.78C104.44 98.54 104.52 96.18 104.52 93.7C104.52 90.14 104.26 86.74 103.74 83.5C103.22 80.26 102.18 77.16 100.62 74.2C99.06 71.24 96.68 68.38 93.48 65.62ZM104.58 82.96L108.78 85.48C107.86 87.48 106.66 89.54 105.18 91.66C103.74 93.74 102.2 95.72 100.56 97.6C98.92 99.44 97.3 101.02 95.7 102.34C95.22 101.66 94.62 100.92 93.9 100.12C93.22 99.28 92.54 98.6 91.86 98.08C93.46 97 95.06 95.64 96.66 94C98.3 92.36 99.82 90.58 101.22 88.66C102.62 86.74 103.74 84.84 104.58 82.96ZM107.1 62.56L111.42 65.92C109.46 69.16 107.06 72.24 104.22 75.16C101.38 78.08 98.4 80.64 95.28 82.84C94.88 82.28 94.32 81.62 93.6 80.86C92.92 80.06 92.28 79.42 91.68 78.94C93.68 77.54 95.64 75.94 97.56 74.14C99.52 72.34 101.3 70.46 102.9 68.5C104.54 66.5 105.94 64.52 107.1 62.56ZM198.12 76.54C197.36 77.02 196.54 77.5 195.66 77.98C194.82 78.42 193.92 78.88 192.96 79.36C191.96 79.88 190.76 80.5 189.36 81.22C187.96 81.9 186.44 82.66 184.8 83.5C183.16 84.3 181.52 85.16 179.88 86.08C178.28 87 176.76 87.92 175.32 88.84C172.68 90.6 170.58 92.42 169.02 94.3C167.46 96.18 166.68 98.24 166.68 100.48C166.68 102.8 167.8 104.62 170.04 105.94C172.28 107.26 175.64 107.92 180.12 107.92C182.28 107.92 184.54 107.84 186.9 107.68C189.26 107.48 191.54 107.22 193.74 106.9C195.98 106.58 197.9 106.2 199.5 105.76L199.44 112.6C197.88 112.84 196.1 113.08 194.1 113.32C192.1 113.56 189.94 113.74 187.62 113.86C185.34 113.98 182.92 114.04 180.36 114.04C177.48 114.04 174.8 113.82 172.32 113.38C169.88 112.94 167.76 112.22 165.96 111.22C164.16 110.22 162.76 108.9 161.76 107.26C160.76 105.58 160.26 103.54 160.26 101.14C160.26 98.82 160.76 96.68 161.76 94.72C162.8 92.76 164.22 90.92 166.02 89.2C167.82 87.48 169.9 85.84 172.26 84.28C173.74 83.28 175.32 82.3 177 81.34C178.68 80.38 180.32 79.46 181.92 78.58C183.56 77.7 185.08 76.9 186.48 76.18C187.88 75.46 189.06 74.82 190.02 74.26C190.98 73.7 191.84 73.18 192.6 72.7C193.4 72.22 194.14 71.68 194.82 71.08L198.12 76.54ZM167.82 64.84C168.78 67.4 169.8 69.92 170.88 72.4C171.96 74.84 173.04 77.12 174.12 79.24C175.24 81.36 176.26 83.24 177.18 84.88L171.9 88C170.86 86.28 169.78 84.3 168.66 82.06C167.54 79.78 166.4 77.38 165.24 74.86C164.08 72.34 162.96 69.82 161.88 67.3L167.82 64.84ZM210.12 85.48H265.32V91.72H210.12V85.48ZM291.6 68.08H314.1V72.88H291.6V68.08ZM298.92 99.4H317.4V103.96H298.92V99.4ZM298.74 109.78H317.58V114.52H298.74V109.78ZM289.62 79.12H324.12V83.98H289.62V79.12ZM300.78 61.36H306.06V82.12H300.78V61.36ZM277.74 61.36L282.66 63.16C281.9 64.68 281.08 66.26 280.2 67.9C279.36 69.5 278.5 71.04 277.62 72.52C276.78 74 275.98 75.3 275.22 76.42L271.38 74.8C272.14 73.64 272.9 72.28 273.66 70.72C274.46 69.12 275.22 67.5 275.94 65.86C276.66 64.22 277.26 62.72 277.74 61.36ZM284.46 68.32L289.14 70.48C287.74 72.72 286.18 75.08 284.46 77.56C282.78 80.04 281.08 82.44 279.36 84.76C277.64 87.04 276.02 89.06 274.5 90.82L271.14 88.9C272.26 87.58 273.44 86.08 274.68 84.4C275.92 82.68 277.12 80.9 278.28 79.06C279.48 77.18 280.6 75.32 281.64 73.48C282.72 71.64 283.66 69.92 284.46 68.32ZM268.32 74.56L271.2 70.78C272.24 71.74 273.3 72.8 274.38 73.96C275.46 75.12 276.46 76.26 277.38 77.38C278.3 78.5 279 79.52 279.48 80.44L276.42 84.76C275.94 83.76 275.26 82.68 274.38 81.52C273.5 80.32 272.52 79.12 271.44 77.92C270.36 76.68 269.32 75.56 268.32 74.56ZM282.24 82.36L286.32 80.68C287.12 81.96 287.88 83.36 288.6 84.88C289.36 86.4 290.04 87.88 290.64 89.32C291.24 90.76 291.66 92.02 291.9 93.1L287.52 95.08C287.32 93.96 286.94 92.66 286.38 91.18C285.82 89.7 285.18 88.2 284.46 86.68C283.78 85.16 283.04 83.72 282.24 82.36ZM267.9 87.82C270.54 87.66 273.66 87.5 277.26 87.34C280.86 87.14 284.56 86.92 288.36 86.68L288.42 91.36C284.86 91.64 281.34 91.9 277.86 92.14C274.38 92.38 271.28 92.6 268.56 92.8L267.9 87.82ZM283.86 97.12L287.94 95.86C288.7 97.58 289.36 99.44 289.92 101.44C290.52 103.44 290.9 105.18 291.06 106.66L286.8 108.04C286.64 106.56 286.28 104.8 285.72 102.76C285.2 100.72 284.58 98.84 283.86 97.12ZM271.08 96.1L275.76 96.88C275.4 99.72 274.88 102.52 274.2 105.28C273.56 108.04 272.78 110.38 271.86 112.3C271.54 112.1 271.12 111.88 270.6 111.64C270.08 111.36 269.54 111.1 268.98 110.86C268.46 110.58 268.02 110.38 267.66 110.26C268.58 108.42 269.3 106.24 269.82 103.72C270.38 101.2 270.8 98.66 271.08 96.1ZM277.56 90.22H282.48V117.04H277.56V90.22ZM318.3 62.68L323.34 64.24C320.42 71.72 316.3 78.32 310.98 84.04C305.7 89.72 299.16 94.52 291.36 98.44C291.16 98.04 290.86 97.6 290.46 97.12C290.06 96.6 289.64 96.12 289.2 95.68C288.76 95.2 288.34 94.82 287.94 94.54C295.42 90.98 301.74 86.48 306.9 81.04C312.06 75.56 315.86 69.44 318.3 62.68ZM301.02 89.2H317.64V93.88H301.02V116.98H295.86V92.32L298.8 89.2H301.02ZM315.12 89.2H320.58V116.98H315.12V89.2ZM352.32 70.84C354.08 71.12 356.06 71.32 358.26 71.44C360.5 71.56 362.8 71.6 365.16 71.56C367.52 71.52 369.78 71.44 371.94 71.32C374.1 71.2 375.96 71.04 377.52 70.84V76.96C375.8 77.12 373.86 77.26 371.7 77.38C369.54 77.46 367.3 77.5 364.98 77.5C362.7 77.5 360.46 77.46 358.26 77.38C356.06 77.26 354.1 77.12 352.38 76.96L352.32 70.84ZM355.74 95.8C355.5 96.84 355.3 97.78 355.14 98.62C355.02 99.46 354.96 100.3 354.96 101.14C354.96 101.82 355.1 102.46 355.38 103.06C355.7 103.66 356.2 104.18 356.88 104.62C357.6 105.06 358.56 105.42 359.76 105.7C361 105.94 362.52 106.06 364.32 106.06C367.04 106.06 369.58 105.94 371.94 105.7C374.34 105.42 376.78 105 379.26 104.44L379.38 110.86C377.5 111.22 375.3 111.52 372.78 111.76C370.3 111.96 367.44 112.06 364.2 112.06C359.12 112.06 355.36 111.24 352.92 109.6C350.52 107.92 349.32 105.62 349.32 102.7C349.32 101.62 349.4 100.5 349.56 99.34C349.72 98.14 349.98 96.8 350.34 95.32L355.74 95.8ZM341.88 66.52C341.76 66.88 341.6 67.36 341.4 67.96C341.24 68.52 341.08 69.1 340.92 69.7C340.8 70.26 340.7 70.72 340.62 71.08C340.42 72.08 340.18 73.3 339.9 74.74C339.66 76.14 339.4 77.68 339.12 79.36C338.88 81 338.64 82.68 338.4 84.4C338.2 86.08 338.02 87.72 337.86 89.32C337.74 90.92 337.68 92.38 337.68 93.7C337.68 94.74 337.7 95.8 337.74 96.88C337.82 97.92 337.92 99 338.04 100.12C338.4 99.32 338.76 98.48 339.12 97.6C339.48 96.68 339.84 95.78 340.2 94.9C340.56 94.02 340.9 93.22 341.22 92.5L344.22 94.9C343.7 96.38 343.14 98.02 342.54 99.82C341.94 101.62 341.4 103.34 340.92 104.98C340.48 106.58 340.16 107.88 339.96 108.88C339.88 109.28 339.8 109.76 339.72 110.32C339.64 110.84 339.62 111.28 339.66 111.64C339.66 111.92 339.66 112.26 339.66 112.66C339.7 113.1 339.74 113.5 339.78 113.86L334.32 114.22C333.72 112.14 333.2 109.4 332.76 106C332.32 102.6 332.1 98.88 332.1 94.84C332.1 92.6 332.2 90.34 332.4 88.06C332.6 85.74 332.84 83.5 333.12 81.34C333.4 79.18 333.68 77.2 333.96 75.4C334.28 73.6 334.52 72.1 334.68 70.9C334.8 70.14 334.9 69.32 334.98 68.44C335.1 67.56 335.18 66.72 335.22 65.92L341.88 66.52ZM398.084 115.66C396.844 114.14 395.464 112.58 393.944 110.98C392.464 109.38 390.944 107.84 389.384 106.36C387.864 104.88 386.404 103.56 385.004 102.4L389.924 98.08C391.364 99.24 392.884 100.6 394.484 102.16C396.084 103.68 397.644 105.26 399.164 106.9C400.724 108.5 402.064 109.98 403.184 111.34L398.084 115.66ZM488.264 66.04C488.224 66.8 488.164 67.64 488.084 68.56C488.044 69.48 488.024 70.48 488.024 71.56C488.024 72.48 488.024 73.62 488.024 74.98C488.024 76.3 488.024 77.64 488.024 79C488.024 80.32 488.024 81.4 488.024 82.24C488.024 85.64 487.884 88.58 487.604 91.06C487.364 93.54 486.964 95.68 486.404 97.48C485.844 99.24 485.144 100.82 484.304 102.22C483.504 103.58 482.544 104.88 481.424 106.12C480.144 107.64 478.664 108.98 476.984 110.14C475.304 111.26 473.604 112.2 471.884 112.96C470.164 113.72 468.564 114.36 467.084 114.88L462.104 109.66C464.944 108.94 467.584 107.96 470.024 106.72C472.504 105.48 474.664 103.86 476.504 101.86C477.544 100.62 478.384 99.38 479.024 98.14C479.704 96.9 480.204 95.52 480.524 94C480.884 92.48 481.124 90.74 481.244 88.78C481.404 86.82 481.484 84.52 481.484 81.88C481.484 81 481.484 79.9 481.484 78.58C481.484 77.26 481.484 75.96 481.484 74.68C481.484 73.4 481.484 72.36 481.484 71.56C481.484 70.48 481.444 69.48 481.364 68.56C481.284 67.64 481.204 66.8 481.124 66.04H488.264ZM460.424 66.52C460.384 67.12 460.324 67.8 460.244 68.56C460.204 69.32 460.184 70.12 460.184 70.96C460.184 71.32 460.184 72 460.184 73C460.184 73.96 460.184 75.12 460.184 76.48C460.184 77.84 460.184 79.26 460.184 80.74C460.184 82.22 460.184 83.66 460.184 85.06C460.184 86.46 460.184 87.7 460.184 88.78C460.184 89.82 460.184 90.58 460.184 91.06C460.184 91.82 460.204 92.68 460.244 93.64C460.324 94.56 460.384 95.32 460.424 95.92H453.524C453.564 95.44 453.604 94.74 453.644 93.82C453.724 92.86 453.764 91.94 453.764 91.06C453.764 90.58 453.764 89.8 453.764 88.72C453.764 87.64 453.764 86.42 453.764 85.06C453.764 83.66 453.764 82.22 453.764 80.74C453.764 79.22 453.764 77.8 453.764 76.48C453.764 75.12 453.764 73.96 453.764 73C453.764 72 453.764 71.32 453.764 70.96C453.764 70.4 453.744 69.68 453.704 68.8C453.664 67.88 453.604 67.12 453.524 66.52H460.424ZM513.464 66.76C514.264 66.84 515.164 66.92 516.164 67C517.204 67.04 518.224 67.06 519.224 67.06C519.864 67.06 520.964 67.06 522.524 67.06C524.124 67.06 525.904 67.06 527.864 67.06C529.864 67.06 531.844 67.06 533.804 67.06C535.804 67.06 537.584 67.06 539.144 67.06C540.744 67.06 541.884 67.06 542.564 67.06C543.524 67.06 544.544 67.04 545.624 67C546.744 66.92 547.684 66.84 548.444 66.76V72.94C547.684 72.86 546.764 72.82 545.684 72.82C544.604 72.78 543.544 72.76 542.504 72.76C541.824 72.76 540.704 72.76 539.144 72.76C537.584 72.76 535.804 72.76 533.804 72.76C531.844 72.76 529.864 72.76 527.864 72.76C525.904 72.76 524.144 72.76 522.584 72.76C521.024 72.76 519.904 72.76 519.224 72.76C518.264 72.76 517.264 72.78 516.224 72.82C515.224 72.82 514.304 72.86 513.464 72.94V66.76ZM553.184 83.26C552.984 83.58 552.784 83.94 552.584 84.34C552.424 84.74 552.304 85.08 552.224 85.36C551.384 88.28 550.264 91.2 548.864 94.12C547.464 97.04 545.644 99.72 543.404 102.16C540.324 105.6 536.924 108.32 533.204 110.32C529.524 112.32 525.764 113.86 521.924 114.94L517.244 109.54C521.604 108.62 525.584 107.24 529.184 105.4C532.784 103.52 535.804 101.3 538.244 98.74C539.964 96.94 541.364 94.98 542.444 92.86C543.564 90.74 544.384 88.7 544.904 86.74C544.504 86.74 543.724 86.74 542.564 86.74C541.404 86.74 539.984 86.74 538.304 86.74C536.664 86.74 534.904 86.74 533.024 86.74C531.144 86.74 529.224 86.74 527.264 86.74C525.344 86.74 523.524 86.74 521.804 86.74C520.084 86.74 518.564 86.74 517.244 86.74C515.964 86.74 515.004 86.74 514.364 86.74C513.644 86.74 512.684 86.76 511.484 86.8C510.324 86.84 509.164 86.9 508.004 86.98V80.74C509.204 80.86 510.344 80.96 511.424 81.04C512.504 81.12 513.484 81.16 514.364 81.16C514.844 81.16 515.704 81.16 516.944 81.16C518.184 81.16 519.644 81.16 521.324 81.16C523.004 81.16 524.804 81.16 526.724 81.16C528.684 81.16 530.644 81.16 532.604 81.16C534.564 81.16 536.384 81.16 538.064 81.16C539.784 81.16 541.264 81.16 542.504 81.16C543.744 81.16 544.604 81.16 545.084 81.16C545.924 81.16 546.664 81.12 547.304 81.04C547.984 80.92 548.524 80.78 548.924 80.62L553.184 83.26ZM588.164 76.96C588.444 77.56 588.804 78.46 589.244 79.66C589.684 80.82 590.144 82.08 590.624 83.44C591.144 84.76 591.604 86.02 592.004 87.22C592.444 88.42 592.764 89.34 592.964 89.98L587.324 92.02C587.164 91.3 586.884 90.36 586.484 89.2C586.084 88 585.644 86.76 585.164 85.48C584.684 84.16 584.204 82.9 583.724 81.7C583.284 80.5 582.884 79.54 582.524 78.82L588.164 76.96ZM610.064 80.8C609.784 81.56 609.544 82.22 609.344 82.78C609.184 83.34 609.044 83.86 608.924 84.34C608.124 87.54 607.044 90.68 605.684 93.76C604.364 96.84 602.644 99.74 600.524 102.46C597.764 105.98 594.624 108.96 591.104 111.4C587.624 113.8 584.184 115.66 580.784 116.98L575.804 111.88C578.044 111.24 580.364 110.32 582.764 109.12C585.164 107.92 587.464 106.48 589.664 104.8C591.904 103.12 593.844 101.26 595.484 99.22C596.844 97.5 598.084 95.54 599.204 93.34C600.324 91.1 601.244 88.74 601.964 86.26C602.684 83.74 603.184 81.22 603.464 78.7L610.064 80.8ZM574.184 80.08C574.544 80.76 574.964 81.7 575.444 82.9C575.964 84.06 576.484 85.32 577.004 86.68C577.564 88.04 578.084 89.34 578.564 90.58C579.044 91.82 579.424 92.86 579.704 93.7L574.004 95.8C573.764 95.04 573.404 94.02 572.924 92.74C572.444 91.42 571.924 90.06 571.364 88.66C570.844 87.26 570.324 85.98 569.804 84.82C569.324 83.62 568.904 82.72 568.544 82.12L574.184 80.08ZM670.424 74.56C670.104 75.04 669.804 75.62 669.524 76.3C669.244 76.98 668.984 77.62 668.744 78.22C668.224 80.14 667.484 82.26 666.524 84.58C665.564 86.9 664.384 89.28 662.984 91.72C661.584 94.12 659.984 96.42 658.184 98.62C655.424 102.02 652.124 105.1 648.284 107.86C644.484 110.62 639.784 113.08 634.184 115.24L628.604 110.26C632.484 109.1 635.884 107.76 638.804 106.24C641.764 104.68 644.364 102.98 646.604 101.14C648.884 99.3 650.904 97.34 652.664 95.26C654.184 93.54 655.544 91.64 656.744 89.56C657.984 87.44 659.044 85.34 659.924 83.26C660.844 81.14 661.464 79.24 661.784 77.56H640.424L642.704 72.16C643.224 72.16 644.104 72.16 645.344 72.16C646.624 72.16 648.064 72.16 649.664 72.16C651.304 72.16 652.904 72.16 654.464 72.16C656.064 72.16 657.444 72.16 658.604 72.16C659.804 72.16 660.604 72.16 661.004 72.16C661.844 72.16 662.664 72.12 663.464 72.04C664.264 71.92 664.944 71.76 665.504 71.56L670.424 74.56ZM650.564 65.32C649.964 66.2 649.364 67.16 648.764 68.2C648.204 69.24 647.764 70.06 647.444 70.66C646.204 72.94 644.624 75.36 642.704 77.92C640.824 80.48 638.644 83 636.164 85.48C633.684 87.92 630.904 90.18 627.824 92.26L622.544 88.3C625.144 86.74 627.464 85.08 629.504 83.32C631.544 81.56 633.304 79.8 634.784 78.04C636.304 76.24 637.604 74.52 638.684 72.88C639.764 71.24 640.664 69.76 641.384 68.44C641.744 67.84 642.144 67.02 642.584 65.98C643.024 64.9 643.364 63.92 643.604 63.04L650.564 65.32ZM723.267 71.62C723.027 71.9 722.727 72.36 722.367 73C722.007 73.64 721.727 74.22 721.527 74.74C720.687 76.66 719.647 78.8 718.407 81.16C717.207 83.52 715.827 85.88 714.267 88.24C712.747 90.56 711.147 92.68 709.467 94.6C707.267 97.12 704.827 99.58 702.147 101.98C699.507 104.38 696.707 106.6 693.747 108.64C690.787 110.64 687.727 112.38 684.567 113.86L679.707 108.76C682.947 107.48 686.067 105.9 689.067 104.02C692.107 102.14 694.927 100.08 697.527 97.84C700.127 95.6 702.407 93.38 704.367 91.18C705.727 89.66 707.047 87.98 708.327 86.14C709.607 84.26 710.747 82.38 711.747 80.5C712.747 78.62 713.467 76.9 713.907 75.34C713.547 75.34 712.807 75.34 711.687 75.34C710.567 75.34 709.227 75.34 707.667 75.34C706.147 75.34 704.547 75.34 702.867 75.34C701.227 75.34 699.627 75.34 698.067 75.34C696.547 75.34 695.227 75.34 694.107 75.34C692.987 75.34 692.247 75.34 691.887 75.34C691.127 75.34 690.287 75.38 689.367 75.46C688.487 75.5 687.667 75.56 686.907 75.64C686.187 75.68 685.667 75.7 685.347 75.7V68.92C685.747 68.96 686.347 69.02 687.147 69.1C687.947 69.14 688.787 69.2 689.667 69.28C690.547 69.32 691.287 69.34 691.887 69.34C692.327 69.34 693.107 69.34 694.227 69.34C695.387 69.34 696.727 69.34 698.247 69.34C699.807 69.34 701.427 69.34 703.107 69.34C704.787 69.34 706.387 69.34 707.907 69.34C709.427 69.34 710.747 69.34 711.867 69.34C712.987 69.34 713.747 69.34 714.147 69.34C715.267 69.34 716.287 69.28 717.207 69.16C718.127 69.04 718.847 68.9 719.367 68.74L723.267 71.62ZM710.247 90.64C711.847 91.96 713.527 93.44 715.287 95.08C717.047 96.72 718.767 98.42 720.447 100.18C722.127 101.9 723.687 103.56 725.127 105.16C726.607 106.76 727.847 108.18 728.847 109.42L723.567 114.1C722.087 112.1 720.387 110 718.467 107.8C716.547 105.6 714.507 103.4 712.347 101.2C710.187 98.96 708.027 96.88 705.867 94.96L710.247 90.64ZM744.807 97.24C746.567 97.24 748.147 97.68 749.547 98.56C750.947 99.4 752.067 100.52 752.907 101.92C753.747 103.32 754.167 104.9 754.167 106.66C754.167 108.38 753.747 109.96 752.907 111.4C752.067 112.8 750.947 113.92 749.547 114.76C748.147 115.6 746.567 116.02 744.807 116.02C743.087 116.02 741.507 115.6 740.067 114.76C738.667 113.92 737.527 112.8 736.647 111.4C735.807 109.96 735.387 108.38 735.387 106.66C735.387 104.9 735.807 103.32 736.647 101.92C737.527 100.52 738.667 99.4 740.067 98.56C741.507 97.68 743.087 97.24 744.807 97.24ZM744.807 112.42C746.407 112.42 747.767 111.86 748.887 110.74C750.007 109.62 750.567 108.26 750.567 106.66C750.567 105.58 750.307 104.62 749.787 103.78C749.307 102.9 748.627 102.2 747.747 101.68C746.867 101.16 745.887 100.9 744.807 100.9C743.767 100.9 742.807 101.16 741.927 101.68C741.047 102.2 740.347 102.9 739.827 103.78C739.307 104.62 739.047 105.58 739.047 106.66C739.047 107.7 739.307 108.68 739.827 109.6C740.347 110.48 741.047 111.18 741.927 111.7C742.807 112.18 743.767 112.42 744.807 112.42Z" fill="#FF91C0"/>
</svg>
