<svg width="1048" height="24" viewBox="0 0 1048 24" fill="none" xmlns="http://www.w3.org/2000/svg">
    <path d="M1 12C35.8667 -2.66667 70.7333 -2.66667 105.6 12C140.467 26.6667 175.333 26.6667 210.2 12C245.067 -2.66667 279.933 -2.66667 314.8 12C349.667 26.6667 384.533 26.6667 419.4 12C454.267 -2.66667 489.133 -2.66667 524 12C558.867 26.6667 593.733 26.6667 628.6 12C663.467 -2.66667 698.333 -2.66667 733.2 12C768.067 26.6667 802.933 26.6667 837.8 12C872.667 -2.66667 907.533 -2.66667 942.4 12C977.267 26.6667 1012.13 26.6667 1047 12" stroke="#FF91C0" stroke-width="2"/>
</svg>
