<svg width="1440" height="239" viewBox="0 0 1440 239" fill="none" xmlns="http://www.w3.org/2000/svg">
    <path d="M1440 238.403H1380C1320 238.403 1200 238.403 1080 209.986C960 181.995 840 124.523 720 90.7847C600 56.4079 480 45.7649 360 62.4744C240 79.8225 120 124.523 60 147.618L0 170.288V0.00012207L60 0.00012207C120 0.00012207 240 0.00012207 360 0.00012207C480 0.00012207 600 0.00012207 720 0.00012207C840 0.00012207 960 0.00012207 1080 0.00012207C1200 0.00012207 1320 0.00012207 1380 0.00012207H1440V238.403Z" fill="#FFF1F7"/>
</svg>
