<svg width="564" height="378" viewBox="0 0 564 378" fill="none" xmlns="http://www.w3.org/2000/svg">
    <g filter="url(#filter0_d_33_2)">
        <ellipse cx="282.092" cy="184.515" rx="277.908" ry="184.515" fill="#FFDFED"/>
    </g>
    <path d="M99.12 126.645H126.21V131.505H99.12V126.645ZM104.34 120.75H109.515V136.59H104.34V120.75ZM115.635 120.75H120.855V136.59H115.635V120.75ZM100.605 137.985H124.815V162.555H119.685V142.665H105.51V162.78H100.605V137.985ZM103.395 146.94H121.89V151.53H103.395V146.94ZM103.53 155.94H122.025V160.665H103.53V155.94ZM110.1 140.28H114.915V159.405H110.1V140.28ZM85.215 124.395L88.995 121.56C91.095 123.33 92.775 125.16 94.035 127.05C95.325 128.91 96.285 130.83 96.915 132.81C97.545 134.79 97.965 136.815 98.175 138.885C98.415 140.955 98.535 143.085 98.535 145.275C98.535 147.315 98.46 149.31 98.31 151.26C98.19 153.21 97.935 154.965 97.545 156.525C97.185 158.085 96.675 159.33 96.015 160.26C95.655 160.71 95.235 161.085 94.755 161.385C94.305 161.685 93.795 161.895 93.225 162.015C92.385 162.225 91.485 162.345 90.525 162.375C89.595 162.405 88.62 162.405 87.6 162.375C87.6 161.505 87.48 160.605 87.24 159.675C87 158.775 86.655 157.95 86.205 157.2C87.255 157.29 88.155 157.335 88.905 157.335C89.685 157.305 90.285 157.275 90.705 157.245C91.335 157.155 91.8 156.9 92.1 156.48C92.43 156.06 92.685 155.295 92.865 154.185C93.045 153.075 93.18 151.74 93.27 150.18C93.36 148.62 93.405 146.94 93.405 145.14C93.405 142.41 93.195 139.86 92.775 137.49C92.385 135.09 91.605 132.81 90.435 130.65C89.295 128.46 87.555 126.375 85.215 124.395ZM93.72 137.13L97.68 139.515C96.96 140.985 96.045 142.515 94.935 144.105C93.825 145.665 92.64 147.15 91.38 148.56C90.15 149.94 88.92 151.125 87.69 152.115C87.27 151.455 86.715 150.75 86.025 150C85.365 149.22 84.72 148.59 84.09 148.11C85.29 147.33 86.505 146.34 87.735 145.14C88.965 143.94 90.105 142.65 91.155 141.27C92.205 139.86 93.06 138.48 93.72 137.13ZM95.565 121.605L99.57 124.89C98.04 127.32 96.195 129.615 94.035 131.775C91.905 133.935 89.685 135.795 87.375 137.355C87.015 136.785 86.49 136.125 85.8 135.375C85.14 134.625 84.525 134.01 83.955 133.53C85.455 132.57 86.91 131.445 88.32 130.155C89.76 128.835 91.095 127.455 92.325 126.015C93.585 124.575 94.665 123.105 95.565 121.605ZM164.685 132.765C164.025 133.185 163.32 133.59 162.57 133.98C161.85 134.37 161.07 134.775 160.23 135.195C159.54 135.555 158.685 135.975 157.665 136.455C156.675 136.935 155.595 137.475 154.425 138.075C153.285 138.645 152.13 139.26 150.96 139.92C149.79 140.55 148.695 141.195 147.675 141.855C145.815 143.085 144.3 144.36 143.13 145.68C141.99 147 141.42 148.455 141.42 150.045C141.42 151.635 142.2 152.865 143.76 153.735C145.32 154.575 147.66 154.995 150.78 154.995C152.34 154.995 153.99 154.935 155.73 154.815C157.5 154.665 159.24 154.47 160.95 154.23C162.66 153.96 164.175 153.66 165.495 153.33L165.405 159.81C164.145 160.02 162.765 160.215 161.265 160.395C159.795 160.575 158.19 160.71 156.45 160.8C154.74 160.89 152.91 160.935 150.96 160.935C148.71 160.935 146.625 160.755 144.705 160.395C142.815 160.065 141.15 159.51 139.71 158.73C138.3 157.95 137.19 156.9 136.38 155.58C135.6 154.26 135.21 152.64 135.21 150.72C135.21 148.8 135.63 147.06 136.47 145.5C137.31 143.94 138.45 142.5 139.89 141.18C141.36 139.86 142.965 138.615 144.705 137.445C145.785 136.725 146.925 136.035 148.125 135.375C149.325 134.685 150.495 134.025 151.635 133.395C152.805 132.765 153.885 132.195 154.875 131.685C155.895 131.145 156.735 130.68 157.395 130.29C158.265 129.78 159.03 129.315 159.69 128.895C160.35 128.475 160.98 128.025 161.58 127.545L164.685 132.765ZM142.05 123.135C142.8 125.115 143.58 127.02 144.39 128.85C145.23 130.68 146.055 132.39 146.865 133.98C147.705 135.57 148.47 136.995 149.16 138.255L144.075 141.27C143.265 139.89 142.425 138.345 141.555 136.635C140.685 134.925 139.815 133.125 138.945 131.235C138.075 129.315 137.235 127.38 136.425 125.43L142.05 123.135ZM194.295 154.77C196.275 154.47 198.09 154.035 199.74 153.465C201.39 152.895 202.815 152.16 204.015 151.26C205.245 150.36 206.19 149.265 206.85 147.975C207.51 146.655 207.84 145.11 207.84 143.34C207.84 142.47 207.675 141.63 207.345 140.82C207.015 140.01 206.52 139.29 205.86 138.66C205.23 138 204.465 137.49 203.565 137.13C202.665 136.77 201.645 136.59 200.505 136.59C197.655 136.59 195 137.34 192.54 138.84C190.08 140.31 187.755 142.215 185.565 144.555V138.165C188.265 135.645 190.98 133.875 193.71 132.855C196.47 131.835 199.05 131.325 201.45 131.325C203.76 131.325 205.845 131.835 207.705 132.855C209.595 133.875 211.095 135.3 212.205 137.13C213.315 138.96 213.87 141.075 213.87 143.475C213.87 145.755 213.51 147.81 212.79 149.64C212.07 151.47 211.005 153.075 209.595 154.455C208.185 155.835 206.43 157.005 204.33 157.965C202.23 158.895 199.785 159.645 196.995 160.215L194.295 154.77ZM184.08 135.24C183.6 135.27 182.985 135.345 182.235 135.465C181.485 135.555 180.675 135.66 179.805 135.78C178.965 135.87 178.11 135.975 177.24 136.095C176.37 136.215 175.56 136.32 174.81 136.41L174.225 130.65C174.885 130.68 175.5 130.695 176.07 130.695C176.67 130.665 177.36 130.635 178.14 130.605C178.86 130.545 179.715 130.47 180.705 130.38C181.725 130.26 182.745 130.125 183.765 129.975C184.815 129.825 185.79 129.66 186.69 129.48C187.59 129.3 188.295 129.12 188.805 128.94L190.605 131.235C190.335 131.595 190.02 132.045 189.66 132.585C189.33 133.125 188.985 133.68 188.625 134.25C188.265 134.79 187.95 135.27 187.68 135.69L185.025 144.15C184.545 144.84 183.945 145.71 183.225 146.76C182.535 147.81 181.8 148.92 181.02 150.09C180.24 151.26 179.475 152.385 178.725 153.465C177.975 154.545 177.3 155.49 176.7 156.3L173.145 151.395C173.715 150.675 174.375 149.85 175.125 148.92C175.875 147.96 176.64 146.955 177.42 145.905C178.23 144.825 179.025 143.76 179.805 142.71C180.585 141.63 181.305 140.625 181.965 139.695C182.655 138.735 183.225 137.91 183.675 137.22L183.765 136.05L184.08 135.24ZM183.54 126.555C183.54 125.895 183.54 125.235 183.54 124.575C183.54 123.885 183.48 123.195 183.36 122.505L189.93 122.73C189.78 123.42 189.6 124.425 189.39 125.745C189.18 127.035 188.97 128.52 188.76 130.2C188.58 131.88 188.4 133.65 188.22 135.51C188.07 137.34 187.935 139.17 187.815 141C187.725 142.83 187.68 144.54 187.68 146.13C187.68 147.36 187.68 148.605 187.68 149.865C187.71 151.125 187.74 152.415 187.77 153.735C187.8 155.055 187.86 156.42 187.95 157.83C187.98 158.22 188.025 158.76 188.085 159.45C188.145 160.17 188.205 160.785 188.265 161.295H182.055C182.115 160.785 182.145 160.185 182.145 159.495C182.175 158.835 182.19 158.325 182.19 157.965C182.22 156.495 182.25 155.13 182.28 153.87C182.31 152.61 182.325 151.275 182.325 149.865C182.355 148.455 182.4 146.82 182.46 144.96C182.49 144.27 182.535 143.4 182.595 142.35C182.655 141.27 182.715 140.1 182.775 138.84C182.865 137.55 182.955 136.245 183.045 134.925C183.135 133.605 183.21 132.375 183.27 131.235C183.36 130.065 183.42 129.075 183.45 128.265C183.51 127.425 183.54 126.855 183.54 126.555ZM236.73 123.09C236.55 123.69 236.37 124.425 236.19 125.295C236.01 126.165 235.875 126.84 235.785 127.32C235.575 128.34 235.305 129.585 234.975 131.055C234.675 132.525 234.33 134.085 233.94 135.735C233.58 137.385 233.205 138.96 232.815 140.46C232.425 142.05 231.945 143.775 231.375 145.635C230.805 147.465 230.19 149.34 229.53 151.26C228.9 153.15 228.255 154.965 227.595 156.705C226.935 158.415 226.29 159.945 225.66 161.295L219.405 159.18C220.065 158.04 220.77 156.66 221.52 155.04C222.27 153.39 222.99 151.62 223.68 149.73C224.4 147.84 225.06 145.965 225.66 144.105C226.26 142.245 226.77 140.52 227.19 138.93C227.49 137.88 227.775 136.8 228.045 135.69C228.315 134.58 228.555 133.5 228.765 132.45C228.975 131.4 229.155 130.425 229.305 129.525C229.485 128.595 229.62 127.785 229.71 127.095C229.8 126.255 229.86 125.415 229.89 124.575C229.92 123.735 229.905 123.06 229.845 122.55L236.73 123.09ZM225.255 129.795C227.085 129.795 228.99 129.705 230.97 129.525C232.95 129.345 234.945 129.09 236.955 128.76C238.965 128.43 240.96 128.04 242.94 127.59V133.215C241.08 133.635 239.1 133.995 237 134.295C234.9 134.595 232.83 134.835 230.79 135.015C228.75 135.165 226.875 135.24 225.165 135.24C224.085 135.24 223.11 135.225 222.24 135.195C221.37 135.135 220.53 135.09 219.72 135.06L219.585 129.435C220.755 129.555 221.76 129.645 222.6 129.705C223.44 129.765 224.325 129.795 225.255 129.795ZM239.385 136.68C240.645 136.56 242.04 136.455 243.57 136.365C245.1 136.275 246.585 136.23 248.025 136.23C249.315 136.23 250.62 136.26 251.94 136.32C253.29 136.38 254.625 136.485 255.945 136.635L255.81 142.035C254.7 141.885 253.47 141.765 252.12 141.675C250.8 141.555 249.45 141.495 248.07 141.495C246.54 141.495 245.055 141.54 243.615 141.63C242.205 141.69 240.795 141.81 239.385 141.99V136.68ZM241.815 148.02C241.635 148.65 241.485 149.31 241.365 150C241.245 150.66 241.185 151.245 241.185 151.755C241.185 152.235 241.29 152.685 241.5 153.105C241.71 153.525 242.04 153.9 242.49 154.23C242.94 154.53 243.555 154.77 244.335 154.95C245.145 155.13 246.15 155.22 247.35 155.22C248.88 155.22 250.41 155.145 251.94 154.995C253.5 154.815 255.09 154.575 256.71 154.275L256.485 160.035C255.225 160.185 253.83 160.32 252.3 160.44C250.77 160.59 249.105 160.665 247.305 160.665C243.525 160.665 240.63 160.05 238.62 158.82C236.64 157.56 235.65 155.79 235.65 153.51C235.65 152.49 235.74 151.455 235.92 150.405C236.1 149.355 236.28 148.38 236.46 147.48L241.815 148.02ZM276.195 123.315C276.075 124.245 275.955 125.25 275.835 126.33C275.745 127.41 275.67 128.4 275.61 129.3C275.58 130.53 275.52 132.03 275.43 133.8C275.37 135.54 275.31 137.37 275.25 139.29C275.22 141.21 275.175 143.1 275.115 144.96C275.085 146.82 275.07 148.44 275.07 149.82C275.07 151.32 275.34 152.52 275.88 153.42C276.45 154.29 277.2 154.92 278.13 155.31C279.06 155.67 280.11 155.85 281.28 155.85C283.14 155.85 284.835 155.61 286.365 155.13C287.895 154.62 289.29 153.945 290.55 153.105C291.81 152.265 292.935 151.29 293.925 150.18C294.945 149.07 295.86 147.9 296.67 146.67L300.765 151.62C300.045 152.7 299.1 153.84 297.93 155.04C296.76 156.24 295.365 157.365 293.745 158.415C292.155 159.465 290.31 160.32 288.21 160.98C286.11 161.64 283.785 161.97 281.235 161.97C278.775 161.97 276.63 161.58 274.8 160.8C273 160.05 271.59 158.88 270.57 157.29C269.58 155.67 269.085 153.585 269.085 151.035C269.085 149.805 269.1 148.41 269.13 146.85C269.16 145.26 269.205 143.61 269.265 141.9C269.325 140.19 269.37 138.525 269.4 136.905C269.43 135.255 269.46 133.77 269.49 132.45C269.52 131.13 269.535 130.08 269.535 129.3C269.535 128.22 269.49 127.17 269.4 126.15C269.31 125.1 269.16 124.125 268.95 123.225L276.195 123.315ZM330.195 128.175C329.895 130.455 329.505 132.885 329.025 135.465C328.545 138.045 327.9 140.655 327.09 143.295C326.22 146.325 325.2 148.935 324.03 151.125C322.86 153.315 321.57 155.01 320.16 156.21C318.78 157.38 317.265 157.965 315.615 157.965C313.965 157.965 312.435 157.41 311.025 156.3C309.645 155.16 308.535 153.6 307.695 151.62C306.885 149.64 306.48 147.39 306.48 144.87C306.48 142.26 307.005 139.8 308.055 137.49C309.105 135.18 310.56 133.14 312.42 131.37C314.31 129.57 316.5 128.16 318.99 127.14C321.51 126.12 324.225 125.61 327.135 125.61C329.925 125.61 332.43 126.06 334.65 126.96C336.9 127.86 338.82 129.105 340.41 130.695C342 132.285 343.215 134.145 344.055 136.275C344.895 138.405 345.315 140.7 345.315 143.16C345.315 146.31 344.67 149.13 343.38 151.62C342.09 154.11 340.17 156.165 337.62 157.785C335.1 159.405 331.95 160.515 328.17 161.115L324.795 155.76C325.665 155.67 326.43 155.565 327.09 155.445C327.75 155.325 328.38 155.19 328.98 155.04C330.42 154.68 331.755 154.17 332.985 153.51C334.245 152.82 335.34 151.98 336.27 150.99C337.2 149.97 337.92 148.785 338.43 147.435C338.97 146.085 339.24 144.6 339.24 142.98C339.24 141.21 338.97 139.59 338.43 138.12C337.89 136.65 337.095 135.375 336.045 134.295C334.995 133.185 333.72 132.345 332.22 131.775C330.72 131.175 328.995 130.875 327.045 130.875C324.645 130.875 322.53 131.31 320.7 132.18C318.87 133.02 317.325 134.115 316.065 135.465C314.805 136.815 313.845 138.27 313.185 139.83C312.555 141.39 312.24 142.875 312.24 144.285C312.24 145.785 312.42 147.045 312.78 148.065C313.14 149.055 313.575 149.805 314.085 150.315C314.625 150.795 315.195 151.035 315.795 151.035C316.425 151.035 317.04 150.72 317.64 150.09C318.27 149.43 318.885 148.44 319.485 147.12C320.085 145.8 320.685 144.135 321.285 142.125C321.975 139.965 322.56 137.655 323.04 135.195C323.52 132.735 323.865 130.335 324.075 127.995L330.195 128.175ZM353.955 127.59C354.555 127.65 355.26 127.71 356.07 127.77C356.88 127.83 357.6 127.86 358.23 127.86H382.71C383.4 127.86 384.12 127.83 384.87 127.77C385.62 127.71 386.31 127.65 386.94 127.59V133.755C386.28 133.695 385.575 133.65 384.825 133.62C384.075 133.59 383.37 133.575 382.71 133.575H358.23C357.63 133.575 356.91 133.59 356.07 133.62C355.23 133.65 354.525 133.695 353.955 133.755V127.59ZM366.915 155.265V131.055H373.215V155.265H366.915ZM351.03 151.575C351.75 151.695 352.5 151.785 353.28 151.845C354.06 151.905 354.795 151.935 355.485 151.935H385.14C385.95 151.935 386.715 151.905 387.435 151.845C388.155 151.755 388.8 151.665 389.37 151.575V158.1C388.71 158.01 387.975 157.95 387.165 157.92C386.355 157.89 385.68 157.875 385.14 157.875H355.485C354.825 157.875 354.105 157.89 353.325 157.92C352.545 157.95 351.78 158.01 351.03 158.1V151.575ZM429.33 128.49C429.15 128.76 428.88 129.18 428.52 129.75C428.19 130.32 427.935 130.845 427.755 131.325C427.125 132.735 426.345 134.31 425.415 136.05C424.515 137.79 423.48 139.545 422.31 141.315C421.17 143.055 419.955 144.69 418.665 146.22C416.985 148.11 415.125 149.985 413.085 151.845C411.075 153.675 408.945 155.37 406.695 156.93C404.475 158.46 402.195 159.78 399.855 160.89L395.22 156.03C397.65 155.1 400.005 153.93 402.285 152.52C404.565 151.11 406.68 149.58 408.63 147.93C410.58 146.28 412.26 144.675 413.67 143.115C414.66 141.975 415.59 140.76 416.46 139.47C417.36 138.18 418.155 136.905 418.845 135.645C419.535 134.355 420.045 133.17 420.375 132.09C420.075 132.09 419.535 132.09 418.755 132.09C417.975 132.09 417.06 132.09 416.01 132.09C414.99 132.09 413.91 132.09 412.77 132.09C411.63 132.09 410.535 132.09 409.485 132.09C408.465 132.09 407.565 132.09 406.785 132.09C406.005 132.09 405.45 132.09 405.12 132.09C404.49 132.09 403.83 132.12 403.14 132.18C402.45 132.21 401.79 132.255 401.16 132.315C400.56 132.345 400.095 132.375 399.765 132.405V126.015C400.215 126.045 400.77 126.09 401.43 126.15C402.09 126.21 402.75 126.255 403.41 126.285C404.1 126.315 404.67 126.33 405.12 126.33C405.51 126.33 406.125 126.33 406.965 126.33C407.805 126.33 408.765 126.33 409.845 126.33C410.925 126.33 412.035 126.33 413.175 126.33C414.345 126.33 415.455 126.33 416.505 126.33C417.585 126.33 418.515 126.33 419.295 126.33C420.075 126.33 420.645 126.33 421.005 126.33C421.995 126.33 422.895 126.27 423.705 126.15C424.545 126.03 425.19 125.895 425.64 125.745L429.33 128.49ZM419.25 142.485C420.42 143.415 421.665 144.495 422.985 145.725C424.305 146.955 425.61 148.23 426.9 149.55C428.19 150.87 429.375 152.145 430.455 153.375C431.565 154.575 432.495 155.625 433.245 156.525L428.115 160.98C427.005 159.45 425.73 157.86 424.29 156.21C422.88 154.56 421.38 152.925 419.79 151.305C418.23 149.655 416.64 148.095 415.02 146.625L419.25 142.485ZM444.945 124.485C445.695 124.605 446.505 124.695 447.375 124.755C448.245 124.785 449.04 124.8 449.76 124.8C450.33 124.8 451.23 124.8 452.46 124.8C453.69 124.8 455.07 124.8 456.6 124.8C458.13 124.8 459.66 124.8 461.19 124.8C462.72 124.8 464.07 124.8 465.24 124.8C466.44 124.8 467.31 124.8 467.85 124.8C468.63 124.8 469.44 124.785 470.28 124.755C471.12 124.695 471.93 124.605 472.71 124.485V130.29C471.93 130.23 471.12 130.185 470.28 130.155C469.44 130.125 468.63 130.11 467.85 130.11C467.31 130.11 466.44 130.11 465.24 130.11C464.07 130.11 462.72 130.11 461.19 130.11C459.66 130.11 458.13 130.11 456.6 130.11C455.07 130.11 453.69 130.11 452.46 130.11C451.26 130.11 450.375 130.11 449.805 130.11C449.025 130.11 448.185 130.125 447.285 130.155C446.415 130.185 445.635 130.23 444.945 130.29V124.485ZM439.725 136.005C440.385 136.065 441.09 136.125 441.84 136.185C442.62 136.245 443.355 136.275 444.045 136.275C444.435 136.275 445.215 136.275 446.385 136.275C447.555 136.275 448.965 136.275 450.615 136.275C452.265 136.275 454.035 136.275 455.925 136.275C457.845 136.275 459.75 136.275 461.64 136.275C463.56 136.275 465.345 136.275 466.995 136.275C468.645 136.275 470.04 136.275 471.18 136.275C472.35 136.275 473.13 136.275 473.52 136.275C474 136.275 474.645 136.26 475.455 136.23C476.295 136.17 477.015 136.095 477.615 136.005V141.855C477.075 141.795 476.415 141.765 475.635 141.765C474.855 141.735 474.15 141.72 473.52 141.72C473.13 141.72 472.35 141.72 471.18 141.72C470.04 141.72 468.645 141.72 466.995 141.72C465.345 141.72 463.56 141.72 461.64 141.72C459.75 141.72 457.845 141.72 455.925 141.72C454.035 141.72 452.265 141.72 450.615 141.72C448.965 141.72 447.555 141.72 446.385 141.72C445.215 141.72 444.435 141.72 444.045 141.72C443.385 141.72 442.65 141.735 441.84 141.765C441.06 141.795 440.355 141.84 439.725 141.9V136.005ZM462.765 139.11C462.765 142.05 462.51 144.69 462 147.03C461.49 149.34 460.755 151.425 459.795 153.285C459.255 154.305 458.535 155.355 457.635 156.435C456.735 157.515 455.7 158.535 454.53 159.495C453.36 160.455 452.1 161.265 450.75 161.925L445.485 158.1C447.075 157.47 448.605 156.57 450.075 155.4C451.545 154.23 452.73 152.985 453.63 151.665C454.77 149.925 455.535 148.005 455.925 145.905C456.315 143.805 456.51 141.555 456.51 139.155L462.765 139.11ZM190.02 232.26H213.915V236.04H190.02V232.26ZM189.3 243.105H214.77V246.885H189.3V243.105ZM189.075 259.935H214.815V263.76H189.075V259.935ZM191.1 237.705H213.24V241.305H191.1V237.705ZM194.925 228.795H199.605V244.77H194.925V228.795ZM204.24 228.795H209.01V244.77H204.24V228.795ZM199.605 244.86H204.285V261.015H199.605V244.86ZM207.795 248.595H212.7V266.145C212.7 267.255 212.565 268.125 212.295 268.755C212.055 269.415 211.56 269.925 210.81 270.285C210.03 270.645 209.1 270.855 208.02 270.915C206.97 271.005 205.695 271.05 204.195 271.05C204.105 270.39 203.925 269.655 203.655 268.845C203.385 268.035 203.1 267.33 202.8 266.73C203.67 266.76 204.525 266.775 205.365 266.775C206.235 266.775 206.805 266.775 207.075 266.775C207.345 266.775 207.525 266.73 207.615 266.64C207.735 266.52 207.795 266.34 207.795 266.1V248.595ZM191.46 248.595H209.91V252.375H196.275V271.095H191.46V248.595ZM193.845 254.4H209.865V257.775H193.845V254.4ZM176.88 259.935L181.56 261.015C180.99 262.905 180.225 264.765 179.265 266.595C178.305 268.395 177.285 269.91 176.205 271.14C175.935 270.87 175.545 270.57 175.035 270.24C174.525 269.91 174.015 269.58 173.505 269.25C172.995 268.92 172.56 268.665 172.2 268.485C173.22 267.405 174.135 266.1 174.945 264.57C175.785 263.04 176.43 261.495 176.88 259.935ZM182.145 261.555L186.15 259.845C186.9 260.985 187.635 262.245 188.355 263.625C189.105 264.975 189.675 266.16 190.065 267.18L185.88 269.16C185.67 268.47 185.355 267.69 184.935 266.82C184.545 265.92 184.11 265.02 183.63 264.12C183.15 263.19 182.655 262.335 182.145 261.555ZM179.31 242.88V247.11H183.765V242.88H179.31ZM179.31 251.07V255.3H183.765V251.07H179.31ZM179.31 234.735V238.875H183.765V234.735H179.31ZM174.72 230.46H188.49V259.62H174.72V230.46ZM225.705 231.27H238.485V236.76H225.705V231.27ZM235.83 231.27H241.41C241.41 232.71 241.47 234.345 241.59 236.175C241.71 237.975 241.965 239.91 242.355 241.98C242.745 244.02 243.33 246.12 244.11 248.28C244.89 250.44 245.925 252.585 247.215 254.715C248.535 256.815 250.185 258.84 252.165 260.79C254.145 262.74 256.515 264.54 259.275 266.19C258.885 266.49 258.405 266.925 257.835 267.495C257.265 268.065 256.71 268.65 256.17 269.25C255.66 269.88 255.24 270.435 254.91 270.915C252.09 269.175 249.645 267.225 247.575 265.065C245.505 262.875 243.765 260.565 242.355 258.135C240.945 255.675 239.805 253.2 238.935 250.71C238.065 248.19 237.405 245.745 236.955 243.375C236.505 240.975 236.205 238.74 236.055 236.67C235.905 234.6 235.83 232.8 235.83 231.27ZM233.895 241.17L240.06 242.295C239.04 246.735 237.675 250.77 235.965 254.4C234.255 258.03 232.2 261.225 229.8 263.985C227.43 266.745 224.685 269.07 221.565 270.96C221.235 270.57 220.77 270.09 220.17 269.52C219.57 268.98 218.94 268.425 218.28 267.855C217.65 267.315 217.095 266.88 216.615 266.55C221.325 264.18 225.075 260.85 227.865 256.56C230.655 252.24 232.665 247.11 233.895 241.17ZM293.16 247.11C293.16 249.9 292.95 252.435 292.53 254.715C292.14 256.965 291.45 259.02 290.46 260.88C289.47 262.71 288.09 264.36 286.32 265.83C284.55 267.3 282.315 268.635 279.615 269.835L274.8 265.29C276.96 264.54 278.82 263.7 280.38 262.77C281.97 261.84 283.275 260.7 284.295 259.35C285.315 257.97 286.065 256.32 286.545 254.4C287.055 252.45 287.31 250.095 287.31 247.335V235.365C287.31 234.435 287.28 233.625 287.22 232.935C287.16 232.215 287.1 231.63 287.04 231.18H293.475C293.415 231.63 293.34 232.215 293.25 232.935C293.19 233.625 293.16 234.435 293.16 235.365V247.11ZM276.915 231.585C276.855 232.005 276.795 232.575 276.735 233.295C276.675 233.985 276.645 234.765 276.645 235.635V251.745C276.645 252.405 276.66 253.05 276.69 253.68C276.72 254.28 276.735 254.82 276.735 255.3C276.765 255.75 276.795 256.14 276.825 256.47H270.525C270.585 256.14 270.63 255.75 270.66 255.3C270.69 254.82 270.72 254.28 270.75 253.68C270.78 253.05 270.795 252.405 270.795 251.745V235.635C270.795 234.975 270.765 234.3 270.705 233.61C270.675 232.92 270.615 232.245 270.525 231.585H276.915ZM262.065 239.685C262.365 239.715 262.755 239.775 263.235 239.865C263.715 239.925 264.27 239.985 264.9 240.045C265.53 240.075 266.22 240.09 266.97 240.09H296.49C297.69 240.09 298.665 240.06 299.415 240C300.165 239.94 300.84 239.865 301.44 239.775V245.76C300.96 245.7 300.315 245.67 299.505 245.67C298.695 245.64 297.69 245.625 296.49 245.625H266.97C266.22 245.625 265.53 245.64 264.9 245.67C264.3 245.67 263.76 245.685 263.28 245.715C262.83 245.745 262.425 245.775 262.065 245.805V239.685ZM306.39 249.495C310.44 248.445 314.1 247.23 317.37 245.85C320.67 244.44 323.565 242.97 326.055 241.44C327.615 240.48 329.175 239.385 330.735 238.155C332.325 236.895 333.81 235.605 335.19 234.285C336.6 232.965 337.785 231.705 338.745 230.505L343.605 235.14C342.225 236.49 340.71 237.855 339.06 239.235C337.44 240.615 335.745 241.935 333.975 243.195C332.205 244.455 330.45 245.61 328.71 246.66C327 247.65 325.08 248.67 322.95 249.72C320.85 250.77 318.63 251.76 316.29 252.69C313.95 253.62 311.595 254.445 309.225 255.165L306.39 249.495ZM325.11 244.32L331.5 242.835V263.085C331.5 263.745 331.515 264.465 331.545 265.245C331.575 266.025 331.62 266.745 331.68 267.405C331.74 268.095 331.815 268.62 331.905 268.98H324.795C324.855 268.62 324.9 268.095 324.93 267.405C324.99 266.745 325.035 266.025 325.065 265.245C325.095 264.465 325.11 263.745 325.11 263.085V244.32ZM361.83 262.68C361.83 262.11 361.83 261.18 361.83 259.89C361.83 258.57 361.83 257.055 361.83 255.345C361.83 253.605 361.83 251.79 361.83 249.9C361.83 248.01 361.83 246.195 361.83 244.455C361.83 242.685 361.83 241.125 361.83 239.775C361.83 238.425 361.83 237.435 361.83 236.805C361.83 236.025 361.785 235.125 361.695 234.105C361.635 233.085 361.53 232.185 361.38 231.405H368.4C368.31 232.185 368.22 233.055 368.13 234.015C368.04 234.945 367.995 235.875 367.995 236.805C367.995 237.645 367.995 238.785 367.995 240.225C367.995 241.665 367.995 243.27 367.995 245.04C367.995 246.78 367.995 248.565 367.995 250.395C367.995 252.195 367.995 253.935 367.995 255.615C367.995 257.295 367.995 258.765 367.995 260.025C367.995 261.255 367.995 262.14 367.995 262.68C367.995 263.1 368.01 263.7 368.04 264.48C368.07 265.23 368.13 266.01 368.22 266.82C368.31 267.63 368.37 268.35 368.4 268.98H361.38C361.5 268.08 361.605 267.03 361.695 265.83C361.785 264.63 361.83 263.58 361.83 262.68ZM366.645 243.06C368.145 243.45 369.825 243.96 371.685 244.59C373.545 245.19 375.42 245.835 377.31 246.525C379.2 247.215 380.97 247.905 382.62 248.595C384.3 249.255 385.695 249.87 386.805 250.44L384.24 256.65C382.98 255.99 381.585 255.33 380.055 254.67C378.525 253.98 376.965 253.32 375.375 252.69C373.815 252.06 372.27 251.475 370.74 250.935C369.24 250.395 367.875 249.915 366.645 249.495V243.06Z"
          fill="grey"/>
    <defs>
        <filter id="filter0_d_33_2" x="0.184326" y="0" width="563.816" height="377.03" filterUnits="userSpaceOnUse" color-interpolation-filters="sRGB">
            <feFlood flood-opacity="0" result="BackgroundImageFix"/>
            <feColorMatrix in="SourceAlpha" type="matrix" values="0 0 0 0 0 0 0 0 0 0 0 0 0 0 0 0 0 0 127 0" result="hardAlpha"/>
            <feOffset dy="4"/>
            <feGaussianBlur stdDeviation="2"/>
            <feComposite in2="hardAlpha" operator="out"/>
            <feColorMatrix type="matrix" values="0 0 0 0 0 0 0 0 0 0 0 0 0 0 0 0 0 0 0.25 0"/>
            <feBlend mode="normal" in2="BackgroundImageFix" result="effect1_dropShadow_33_2"/>
            <feBlend mode="normal" in="SourceGraphic" in2="effect1_dropShadow_33_2" result="shape"/>
        </filter>
    </defs>
</svg>
